<?xml version="1.0" encoding="UTF-8"?>
<svg id="Layer_2" data-name="Layer 2" xmlns="http://www.w3.org/2000/svg" viewBox="0 0 864 622.69">
  <defs>
    <style>
      .cls-1 {
        stroke: #231f20;
      }

      .cls-1, .cls-2 {
        fill: none;
        stroke-miterlimit: 10;
        stroke-width: 3px;
      }

      .cls-2 {
        stroke: #000;
      }
    </style>
  </defs>
   <line class="cls-1" x1="130.59" y1="263.26" x2="170.45" y2="234.22"/>
        <line class="cls-1" x1="223.21" y1="224.15" x2="170.45" y2="234.22"/>
        <line class="cls-1" x1="280.23" y1="250.48" x2="239.24" y2="225.02"/>
        <line class="cls-1" x1="222.77" y1="224.12" x2="240.01" y2="225.18"/>
        <line class="cls-1" x1="278.97" y1="249.83" x2="272.01" y2="259.55"/>
        <line class="cls-1" x1="262.49" y1="264.44" x2="272.45" y2="259.11"/>
        <line class="cls-1" x1="267.47" y1="276.29" x2="262.49" y2="264.44"/>
        <line class="cls-1" x1="283.59" y1="297.63" x2="284.18" y2="285.18"/>
        <line class="cls-1" x1="267.47" y1="276.29" x2="275.09" y2="276.89"/>
        <line class="cls-1" x1="284.69" y1="286.35" x2="274.19" y2="276.46"/>
        <line class="cls-1" x1="283.59" y1="297.63" x2="288.87" y2="307.7"/>
        <line class="cls-1" x1="275.09" y1="319.55" x2="289.14" y2="305.9"/>
        <line class="cls-1" x1="264.98" y1="334.96" x2="275.57" y2="319.02"/>
        <line class="cls-1" x1="271.32" y1="369.57" x2="264.9" y2="334.51"/>
        <line class="cls-1" x1="261.9" y1="378.81" x2="271.68" y2="368.29"/>
        <line class="cls-1" x1="239.63" y1="370.52" x2="263.59" y2="378.52"/>
        <line class="cls-1" x1="231.42" y1="337.33" x2="239.63" y2="370.52"/>
        <line class="cls-1" x1="217.35" y1="320.15" x2="231.84" y2="337.84"/>
        <line class="cls-1" x1="173.38" y1="297.03" x2="217.96" y2="320.47"/>
        <line class="cls-1" x1="162.83" y1="291.4" x2="173.38" y2="297.03"/>
        <line class="cls-1" x1="132.35" y1="313.18" x2="164.52" y2="291.26"/>
        <line class="cls-1" x1="132.94" y1="284.59" x2="183.06" y2="257.96"/>
        <line class="cls-1" x1="254.87" y1="302.66" x2="181.59" y2="257.92"/>
        <line class="cls-1" x1="264.98" y1="334.96" x2="254.13" y2="301.7"/>
        <line class="cls-1" x1="283.59" y1="297.63" x2="267.29" y2="275.98"/>
        <line class="cls-1" x1="262.49" y1="264.44" x2="170.45" y2="234.22"/>
        <line class="cls-1" x1="223.21" y1="332.59" x2="162.83" y2="291.4"/>
        <line class="cls-1" x1="231.42" y1="391.85" x2="222.7" y2="331.7"/>
        <line class="cls-1" x1="192.36" y1="379.96" x2="216.47" y2="399.55"/>
        <line class="cls-1" x1="232.04" y1="390.85" x2="214.57" y2="399.29"/>
        <line class="cls-1" x1="187.67" y1="344.33" x2="193.02" y2="381.18"/>
        <line class="cls-1" x1="157.26" y1="337.33" x2="188.63" y2="345.63"/>
        <line class="cls-1" x1="132.41" y1="360.96" x2="158.66" y2="337.03"/>
        <line class="cls-1" x1="131.58" y1="361.18" x2="145.4" y2="360.57"/>
        <line class="cls-1" x1="163.46" y1="344.81" x2="143.98" y2="360.93"/>
        <line class="cls-1" x1="176.9" y1="365.78" x2="162.34" y2="345.14"/>
        <line class="cls-1" x1="162.34" y1="345.14" x2="187.31" y2="348.33"/>
        <line class="cls-1" x1="239.42" y1="369.68" x2="230.51" y2="381.01"/>
        <line class="cls-1" x1="218.08" y1="398.63" x2="187.67" y2="465.76"/>
        <line class="cls-1" x1="131.76" y1="529.92" x2="188.04" y2="465.33"/>
        <line class="cls-1" x1="180.31" y1="374.57" x2="176.9" y2="365.77" />
        <line class="cls-1" x1="296.49" y1="264.44" x2="318.62" y2="400.96"/>
        <line class="cls-1" x1="419.08" y1="496.58" x2="318.18" y2="400.15"/>
        <line class="cls-1" x1="459.45" y1="497.63" x2="418.27" y2="496.58"/>
        <line class="cls-1" x1="562.63" y1="412.59" x2="458.5" y2="497.92"/>
        <line class="cls-1" x1="587.83" y1="266.81" x2="562.11" y2="413.48"/>
        <line class="cls-1" x1="610.02" y1="136.18" x2="587.22" y2="270.37"/>
        <line class="cls-1" x1="544.55" y1="98.52" x2="589.04" y2="82.18"/>
        <line class="cls-1" x1="610.11" y1="137.03" x2="587.25" y2="81.33"/>
        <line class="cls-1" x1="574.26" y1="47.46" x2="543.87" y2="99.11"/>
        <line class="cls-1" x1="522.18" y1="11.4" x2="575.23" y2="48.74"/>
        <line class="cls-1" x1="349.25" y1="35.11" x2="523.24" y2="11.66"/>
        <line class="cls-1" x1="283.88" y1="124.59" x2="350.25" y2="34.52"/>
        <line class="cls-1" x1="296.56" y1="264.7" x2="279.56" y2="199.8"/>
        <line class="cls-1" x1="284.18" y1="123.79" x2="279.61" y2="200.26"/>
        <line class="cls-1" x1="327.98" y1="409.74" x2="295.76" y2="425.49"/>
        <line class="cls-1" x1="264.98" y1="425.03" x2="296.47" y2="425.33"/>
        <line class="cls-1" x1="204.75" y1="435.11" x2="265.74" y2="424.91"/>
        <line class="cls-1" x1="541.12" y1="431.35" x2="546.8" y2="455.11"/>
        <line class="cls-1" x1="623.01" y1="513.33" x2="546.8" y2="455.11"/>
        <line class="cls-1" x1="683.97" y1="545.33" x2="623.01" y2="513.33"/>
        <line class="cls-1" x1="701.56" y1="572" x2="683.49" y2="544.6"/>
        <line class="cls-1" x1="742.59" y1="596.29" x2="701.04" y2="571.52"/>
        <line class="cls-1" x1="356.59" y1="436.86" x2="376.8" y2="497.63"/>
        <line class="cls-1" x1="419.08" y1="496.58" x2="375.55" y2="496.66"/>
        <line class="cls-1" x1="365.37" y1="505.63" x2="307.33" y2="544.74"/>
        <line class="cls-1" x1="344.63" y1="426.37" x2="314.07" y2="489.63"/>
        <line class="cls-1" x1="307.99" y1="543.7" x2="314.21" y2="489.16"/>
        <line class="cls-1" x1="394.3" y1="518.1" x2="364.01" y2="505.78"/>
        <line class="cls-1" x1="424.28" y1="614.66" x2="393.51" y2="517.18"/>
        <line class="cls-1" x1="507.8" y1="546.15" x2="423.29" y2="612.92"/>
        <line class="cls-1" x1="549.44" y1="491.59" x2="507.52" y2="546.52"/>
        <line class="cls-1" x1="546.8" y1="455.11" x2="549.14" y2="492.59"/>
        <line class="cls-1" x1="390.42" y1="516.52" x2="365.37" y2="584.15"/>
        <line class="cls-1" x1="353.94" y1="603.4" x2="339.87" y2="621.78"/>
        <line class="cls-1" x1="351.01" y1="584.15" x2="376.8" y2="584.15"/>
        <line class="cls-1" x1="353.94" y1="603.4" x2="375.33" y2="583.78"/>
        <line class="cls-1" x1="352.47" y1="584.78" x2="353.94" y2="603.4"/>
        <line class="cls-1" x1="249.59" y1="497.63" x2="252.3" y2="618.52"/>
        <line class="cls-1" x1="490.01" y1="600.7" x2="471.18" y2="618.52"/>
        <line class="cls-1" x1="515.95" y1="594.4" x2="489.35" y2="601.03"/>
        <line class="cls-1" x1="542.38" y1="544.4" x2="514.94" y2="595.2"/>
        <line class="cls-1" x1="548.85" y1="492.03" x2="542.11" y2="544.74"/>
        <line class="cls-1" x1="637.07" y1="618.52" x2="584.33" y2="593.35"/>
        <line class="cls-1" x1="542.11" y1="544.74" x2="584.9" y2="593.78"/>
        <line class="cls-1" x1="683.97" y1="545.33" x2="601.9" y2="569.26"/>
        <line class="cls-1" x1="623.01" y1="513.33" x2="610.99" y2="545.33"/>
        <line class="cls-1" x1="404.68" y1="552.57" x2="372.7" y2="615.26"/>
        <line class="cls-1" x1="374.07" y1="509.2" x2="320.52" y2="618.52"/>
        <line class="cls-1" x1="286.23" y1="224.15" x2="307.98" y2="232.23"/>
        <line class="cls-1" x1="289.96" y1="239.42" x2="300.59" y2="243.7"/>
        <line class="cls-1" x1="310.88" y1="256.1" x2="300.01" y2="243.28"/>
        <line class="cls-1" x1="314.07" y1="294.22" x2="310.56" y2="255.26"/>
        <line class="cls-1" x1="341.91" y1="321.77" x2="313.68" y2="293.29"/>
        <line class="cls-1" x1="387.85" y1="326.97" x2="341.04" y2="321.33"/>
        <line class="cls-1" x1="420.72" y1="301.89" x2="386.76" y2="327.26"/>
        <line class="cls-1" x1="432.42" y1="259.38" x2="420.18" y2="302.66"/>
        <line class="cls-1" x1="416.66" y1="241.56" x2="421.04" y2="246.96"/>
        <line class="cls-1" x1="376.07" y1="229.18" x2="417.47" y2="242.18"/>
        <line class="cls-1" x1="307.33" y1="232.15" x2="346.9" y2="228.15"/>
        <line class="cls-1" x1="376.49" y1="229.31" x2="346.7" y2="228.14"/>
        <line class="cls-1" x1="466.58" y1="246.04" x2="419.83" y2="246.27"/>
        <line class="cls-1" x1="431.04" y1="260.48" x2="456.71" y2="259.56"/>
        <line class="cls-1" x1="474.7" y1="236.44" x2="465.29" y2="246.63"/>
        <line class="cls-1" x1="511.18" y1="232.13" x2="473.78" y2="236.89"/>
        <line class="cls-1" x1="563.51" y1="234.29" x2="511.04" y2="232.15"/>
        <line class="cls-1" x1="584.9" y1="235.37" x2="563.51" y2="234.29"/>
        <line class="cls-1" x1="574.2" y1="253.3" x2="591.76" y2="241.17"/>
        <line class="cls-1" x1="574.2" y1="281.03" x2="574.83" y2="252.13"/>
        <line class="cls-1" x1="556.03" y1="315.63" x2="574.38" y2="280.35"/>
        <line class="cls-1" x1="524.28" y1="328.84" x2="556.76" y2="314.96"/>
        <line class="cls-1" x1="480.61" y1="320.9" x2="525.11" y2="328.74"/>
        <line class="cls-1" x1="465.02" y1="298" x2="481.55" y2="321.52"/>
        <line class="cls-1" x1="455.35" y1="258.52" x2="465.02" y2="298"/>
        <line class="cls-1" x1="584.29" y1="235.46" x2="593.86" y2="231.68"/>
        <line class="cls-1" x1="583.33" y1="246.63" x2="591.69" y2="244.31"/>
        <line class="cls-1" x1="344.05" y1="313.02" x2="384.79" y2="316.87"/>
        <line class="cls-1" x1="412.41" y1="299.02" x2="383.79" y2="317.15"/>
        <line class="cls-1" x1="422.95" y1="266.67" x2="411.81" y2="299.8"/>
        <line class="cls-1" x1="407.46" y1="246.02" x2="422.99" y2="267.72"/>
        <line class="cls-1" x1="374.05" y1="237.25" x2="408.29" y2="246.63"/>
        <line class="cls-1" x1="347.23" y1="237.52" x2="374.53" y2="237.29"/>
        <line class="cls-1" x1="321.84" y1="240.96" x2="347.45" y2="237.51"/>
        <line class="cls-1" x1="319.42" y1="276.42" x2="323.79" y2="240.41"/>
        <line class="cls-1" x1="345.11" y1="313.66" x2="319.26" y2="275.44"/>
        <line class="cls-1" x1="468.05" y1="260.31" x2="473.91" y2="291.57"/>
        <line class="cls-1" x1="487.1" y1="310.03" x2="473.63" y2="291.04"/>
        <line class="cls-1" x1="527.24" y1="318.21" x2="486.2" y2="309.44"/>
        <line class="cls-1" x1="549.4" y1="306.53" x2="526.26" y2="318.34"/>
        <line class="cls-1" x1="565.71" y1="280.13" x2="548.81" y2="307.06"/>
        <line class="cls-1" x1="563.51" y1="253.3" x2="565.48" y2="281.03"/>
        <line class="cls-1" x1="482.32" y1="242.54" x2="467.73" y2="261.4"/>
        <line class="cls-1" x1="509.51" y1="238.73" x2="481.36" y2="243.07"/>
        <line class="cls-1" x1="563.84" y1="254.13" x2="554.25" y2="242.02"/>
        <line class="cls-1" x1="509.13" y1="238.7" x2="555.3" y2="242.54"/>
        <line class="cls-1" x1="322.03" y1="213.42" x2="339.76" y2="198.73"/>
        <line class="cls-1" x1="403.14" y1="196.44" x2="338.88" y2="199.07"/>
        <line class="cls-1" x1="418.9" y1="214.75" x2="402.04" y2="195.94"/>
        <line class="cls-1" x1="374.34" y1="213.42" x2="417.83" y2="214.26"/>
        <line class="cls-1" x1="322.8" y1="213.07" x2="357.03" y2="209.15"/>
        <line class="cls-1" x1="374.63" y1="213.49" x2="356.5" y2="209.11"/>
        <line class="cls-1" x1="462.53" y1="229.18" x2="488.91" y2="219.18"/>
        <line class="cls-1" x1="553.1" y1="228.15" x2="534.2" y2="210.07"/>
        <line class="cls-1" x1="488.41" y1="219.28" x2="535.57" y2="210.46"/>
        <line class="cls-1" x1="463.91" y1="229.35" x2="467.95" y2="232.15"/>
        <line class="cls-1" x1="552.03" y1="227.71" x2="467.15" y2="231.8"/>
        <line class="cls-1" x1="424.25" y1="304.07" x2="410" y2="322.23"/>
        <line class="cls-1" x1="396.36" y1="339.7" x2="400.83" y2="326.44"/>
        <line class="cls-1" x1="410.47" y1="321.85" x2="400.1" y2="327.26"/>
        <line class="cls-1" x1="398.74" y1="349.07" x2="396.4" y2="338.94"/>
        <line class="cls-1" x1="407.13" y1="355.46" x2="398.23" y2="348.29"/>
        <line class="cls-1" x1="411.61" y1="356.84" x2="406.64" y2="355.2"/>
        <line class="cls-1" x1="418.75" y1="352.2" x2="410.47" y2="356.97"/>
        <line class="cls-1" x1="433.07" y1="362.81" x2="417.23" y2="352.15"/>
        <line class="cls-1" x1="449.56" y1="365.57" x2="432.5" y2="362.58"/>
        <line class="cls-1" x1="469.31" y1="351.74" x2="448.46" y2="365.78"/>
        <line class="cls-1" x1="477.48" y1="355.46" x2="467.95" y2="351.88"/>
        <line class="cls-1" x1="466.3" y1="304.71" x2="475.5" y2="321.85"/>
        <line class="cls-1" x1="488.99" y1="333.5" x2="475.16" y2="321.44"/>
        <line class="cls-1" x1="487.54" y1="354.23" x2="488.47" y2="332.29"/>
        <line class="cls-1" x1="476.68" y1="355.43" x2="488.69" y2="353.03"/>
        <line class="cls-1" x1="383.05" y1="392.57" x2="440.35" y2="405.01"/>
        <line class="cls-1" x1="497.49" y1="395.49" x2="439.6" y2="404.97"/>
        <line class="cls-1" x1="383.89" y1="393.02" x2="415.73" y2="430.61"/>
        <line class="cls-1" x1="472.64" y1="431.85" x2="414.61" y2="430.07"/>
        <line class="cls-1" x1="495.95" y1="405.02" x2="471.47" y2="432.39"/>
        <line class="cls-1" x1="496.18" y1="395.71" x2="495.73" y2="406.07"/>
        <line class="cls-1" x1="386.14" y1="394.79" x2="424.54" y2="411.16"/>
        <line class="cls-1" x1="495.67" y1="397.02" x2="453.71" y2="415.38"/>
        <line class="cls-1" x1="423.99" y1="410.96" x2="454.62" y2="415.26"/>
        <line class="cls-1" x1="432.42" y1="259.38" x2="423.99" y2="304.74"/>
        <line class="cls-1" x1="455.35" y1="258.52" x2="466.42" y2="305.22"/>
        <line class="cls-1" x1="335.97" y1="125.37" x2="310.56" y2="171.85"/>
        <line class="cls-1" x1="307.77" y1="231.77" x2="310.75" y2="171.2"/>
        <line class="cls-1" x1="414.6" y1="105.64" x2="335.03" y2="126.07"/>
        <line class="cls-1" x1="442.74" y1="113.69" x2="413.85" y2="105.63"/>
        <line class="cls-1" x1="447.58" y1="113.63" x2="515.07" y2="101.87"/>
        <line class="cls-1" x1="550.61" y1="128.74" x2="513.97" y2="101.63"/>
        <line class="cls-1" x1="582.88" y1="235.37" x2="550.08" y2="128"/>
        <line class="cls-1" x1="447.83" y1="113.63" x2="442.32" y2="113.63"/>
        <line class="cls-1" x1="289.75" y1="425.33" x2="268.13" y2="480.74"/>
        <line class="cls-1" x1="281.98" y1="525.18" x2="268.15" y2="479.79"/>
        <line class="cls-1" x1="281.98" y1="599.4" x2="281.93" y2="524.73"/>
        <line class="cls-1" x1="295.92" y1="618.52" x2="281.7" y2="598.52"/>
        <line class="cls-2" x1="178.33" y1="366.59" x2="189.03" y2="358.59"/>
</svg>